# Blender v3.1.2 OBJ File: 'waku.blend'
# www.blender.org
mtllib waku.mtl
o 立方体
v -1.000000 0.810152 -0.722154
v -1.000000 2.136550 0.005244
v -1.000000 0.122491 -1.962431
v -1.000000 2.122491 -1.994756
v 1.000000 0.810152 -0.722154
v 1.000000 2.136550 0.005244
v 1.000000 0.122491 -1.962431
v 1.000000 2.122491 -1.994756
v -1.000000 2.116493 2.255935
v -1.000000 1.122491 -1.994756
v 1.000000 1.122491 -1.994756
v 1.000000 2.116493 2.255935
v -1.000000 -2.343959 -1.785974
v -1.000000 2.122491 -0.994756
v 1.000000 -2.343959 -1.785974
v 1.000000 2.122491 -0.994756
v 1.000000 1.122491 -0.994756
v -1.000000 1.122491 -0.994756
vt 0.500000 0.125000
vt 0.625000 0.125000
vt 0.625000 0.250000
vt 0.500000 0.250000
vt 0.625000 0.500000
vt 0.500000 0.500000
vt 0.500000 0.625000
vt 0.625000 0.625000
vt 0.625000 0.750000
vt 0.500000 0.750000
vt 0.625000 1.000000
vt 0.500000 1.000000
vt 0.125000 0.625000
vt 0.375000 0.625000
vt 0.375000 0.750000
vt 0.125000 0.750000
vt 0.875000 0.625000
vt 0.875000 0.750000
vt 0.375000 1.000000
vt 0.375000 0.250000
vt 0.375000 0.500000
vt 0.375000 0.125000
vt 0.375000 0.000000
vt 0.500000 0.000000
vt 0.875000 0.500000
vt 0.125000 0.500000
vt 0.625000 0.000000
vn -1.0000 0.0000 0.0000
vn 0.0000 0.0000 -1.0000
vn 1.0000 0.0000 0.0000
vn 0.0000 1.0000 0.0089
vn 0.0000 -0.3196 0.9476
vn 0.0000 0.9999 -0.0141
vn 0.0000 -0.9158 0.4017
vn 0.0000 -0.0323 -0.9995
vn 0.0000 1.0000 0.0000
vn 0.0000 -0.0714 -0.9975
usemtl マテリアル
s off
f 18/1/1 14/2/1 4/3/1 10/4/1
f 10/4/2 4/3/2 8/5/2 11/6/2
f 17/7/3 16/8/3 6/9/3 12/10/3
f 12/10/4 6/9/4 2/11/4 9/12/4
f 13/13/5 15/14/5 5/15/5 1/16/5
f 16/8/6 14/17/6 2/18/6 6/9/6
f 5/15/7 12/10/7 9/12/7 1/19/7
f 15/14/3 17/7/3 12/10/3 5/15/3
f 3/20/8 10/4/8 11/6/8 7/21/8
f 13/22/1 18/1/1 10/4/1 3/20/1
f 1/23/1 9/24/1 18/1/1 13/22/1
f 7/21/3 11/6/3 17/7/3 15/14/3
f 8/5/9 4/25/9 14/17/9 16/8/9
f 3/26/10 7/21/10 15/14/10 13/13/10
f 11/6/3 8/5/3 16/8/3 17/7/3
f 9/24/1 2/27/1 14/2/1 18/1/1
