# Blender v3.2.2 OBJ File: 'enemy.blend'
# www.blender.org
mtllib enemy.mtl
o 機体_円錐
v -0.000162 0.673788 3.977593
v -0.000161 -1.302077 -2.981185
v -0.431507 0.675562 -0.988858
v -0.000161 -0.326212 -0.518178
v 0.431588 0.678075 -0.991994
vt 0.197012 0.000000
vt 0.162784 0.635515
vt 0.000000 0.660605
vt 0.197012 0.339717
vt 0.359355 0.364485
vt 0.393574 1.000000
vt 0.512406 0.689598
vt 0.393574 0.678838
vt 0.512406 0.000000
vt 0.393574 0.000000
vt 0.197012 1.000000
vt 0.428363 0.958156
vn 0.9289 -0.3614 0.0804
vn -0.9287 -0.3620 0.0805
vn -0.0029 1.0000 0.0006
vn -0.9315 -0.3381 0.1340
vn 0.9318 -0.3375 0.1337
vn -0.0046 0.7092 -0.7050
usemtl マテリアル
s off
f 1/1/1 4/2/1 5/3/1
f 3/4/2 4/5/2 1/6/2
f 5/7/3 3/8/3 1/9/3
f 4/5/4 3/4/4 2/10/4
f 4/2/5 2/11/5 5/3/5
f 5/7/6 2/12/6 3/8/6
o 翼_円錐.002
v 0.494111 0.501215 -0.439058
v 2.230336 1.564886 -0.847811
v 0.618331 0.382067 -0.477336
v 0.744957 0.026746 0.029775
v -0.494111 0.501215 -0.439058
v -2.230336 1.564886 -0.847810
v -0.618331 0.382067 -0.477336
v -0.744957 0.026746 0.029775
vt 0.512406 0.045972
vt 0.599538 0.000000
vt 0.599538 0.319529
vt 0.512406 0.593085
vt 0.596871 0.319529
vt 0.523902 0.591002
vt 0.596871 0.639058
vt 0.596871 0.404516
vt 0.617147 0.319529
vt 0.617147 0.418046
vt 0.512406 0.045972
vt 0.599538 0.319529
vt 0.599538 0.000000
vt 0.512406 0.593085
vt 0.523902 0.591002
vt 0.596871 0.319529
vt 0.596871 0.639058
vt 0.596871 0.404516
vt 0.617147 0.418046
vt 0.617147 0.319529
vn -0.2092 0.6291 0.7486
vn -0.2548 0.0447 -0.9660
vn 0.3838 -0.7085 -0.5923
vn -0.7082 -0.6490 -0.2779
vn 0.2092 0.6291 0.7486
vn 0.2548 0.0447 -0.9660
vn -0.3838 -0.7085 -0.5923
vn 0.7082 -0.6490 -0.2779
usemtl マテリアル.001
s off
f 6/13/7 9/14/7 7/15/7
f 6/16/8 7/17/8 8/18/8
f 7/17/9 9/19/9 8/18/9
f 8/20/10 9/21/10 6/22/10
f 10/23/11 11/24/11 13/25/11
f 10/26/12 12/27/12 11/28/12
f 11/28/13 12/27/13 13/29/13
f 12/30/14 10/31/14 13/32/14
