# Blender 3.4.1
# www.blender.org
mtllib testLand.mtl
o 平面
v 10.000000 -0.096628 -10.000000
v -10.000000 -0.096628 -10.000000
v 10.000000 -0.096628 10.000000
v -10.000000 -0.096628 10.000000
v 0.000000 -0.096628 -10.000000
v 0.000000 -0.096628 10.000000
v 10.000000 -0.096628 0.000000
v -10.000000 -0.096628 0.000000
v 0.000000 1.642671 0.000000
vn -0.1714 0.9852 -0.0000
vn 0.1714 0.9852 -0.0000
vn -0.0000 0.9852 -0.1714
vn -0.0000 0.9852 0.1714
vt 0.000000 0.000000
vt 1.000000 0.000000
vt 0.000000 1.000000
vt 1.000000 1.000000
vt 0.500000 0.000000
vt 0.500000 1.000000
vt 0.000000 0.500000
vt 1.000000 0.500000
vt 0.500000 0.500000
s 0
usemtl マテリアル
f 9/9/1 8/8/1 4/4/1
f 7/7/2 9/9/2 3/3/2
f 1/1/3 5/5/3 9/9/3
f 5/5/3 2/2/3 9/9/3
f 9/9/2 7/7/2 1/1/2
f 3/3/4 9/9/4 6/6/4
f 4/4/4 6/6/4 9/9/4
f 9/9/1 2/2/1 8/8/1
